<!-- Generator: Adobe Illustrator 25.2.1, SVG Export Plug-In  -->
<svg version="1.1" xmlns="http://www.w3.org/2000/svg" xmlns:xlink="http://www.w3.org/1999/xlink" x="0px" y="0px" width="436.9px"
	 height="279.1px" viewBox="0 0 436.9 279.1" style="overflow:visible;enable-background:new 0 0 436.9 279.1;"
	 xml:space="preserve">
<style type="text/css">
	.st0{fill:#1C1F1C;}
	.st1{fill:#FFE100;}
	.st2{fill:url(#SVGID_1_);}
	.st3{fill:url(#SVGID_2_);}
	.st4{fill:#FFFFFF;}
	.st5{fill:url(#SVGID_3_);}
	.st6{fill:url(#SVGID_4_);}
</style>
<defs>
</defs>
<path class="st0" d="M157.2,242.1h-11.4v36.6h11.4V242.1z"/>
<path class="st0" d="M151.4,225.7c-3.7,0-6.8,2.7-6.8,6.1c0,3.3,3.1,6.1,6.8,6.1c3.7,0,6.8-2.7,6.8-6.1S155.2,225.7,151.4,225.7z"/>
<path class="st0" d="M91.3,233.7c-1.9-1.7-4.1-3.2-6.7-4.1c-2.4-0.9-4.9-1.5-7.6-1.5H55.6v50.7h11.4v-11.8h6.7l8.9,11.8h13.6
	l-10.5-13.9l0.5-0.3c1.9-0.9,3.6-2.1,5.1-3.5c1.9-1.7,3.3-3.9,4.4-6.1c1.1-2.4,1.6-4.8,1.6-7.5v-0.1c0-2.7-0.5-5.2-1.6-7.5
	C94.7,237.4,93.2,235.4,91.3,233.7z M86,247.6c0,1.3-0.3,2.7-0.7,3.7c-0.4,1.2-1.1,2.1-1.9,3.1c-0.8,0.8-1.9,1.6-3.1,2
	c-0.8,0.4-1.9,0.7-2.9,0.7H67v-19.6h8.7h0.7c1.5,0,2.7,0.3,3.9,0.8s2.3,1.2,3.1,2.1c0.9,0.9,1.6,1.9,2,3.1
	C85.7,244.8,86,246.1,86,247.6z"/>
<path class="st0" d="M0,227.9l17.6,50.7h15.6l17.5-50.7H37.3l-11.9,35.9l-11.9-35.9H0z"/>
<path class="st0" d="M318.6,262c0,3.3-2.9,7.2-6.8,7.2c-4,0-6.9-2.8-6.9-6.8v-20.3h-11.2v19.6c0,10.4,6.3,17.4,15.5,17.4
	c3.9,0,6.4-0.7,8.8-2.5l0.8-0.5v2.5H330V242h-11.2v20H318.6z"/>
<path class="st0" d="M363.1,241.3L363,242l-0.7-0.3c-2.4-1.1-5.1-1.5-8-1.5c-2.9,0-5.6,0.5-8,1.6c-2.4,1.1-4.5,2.4-6.4,4.1
	c-1.7,1.7-3.2,3.9-4.1,6.1c-1.1,2.4-1.6,4.9-1.6,7.6v0.1c0,2.7,0.5,5.2,1.5,7.5c0.9,2.4,2.4,4.4,4.1,6.1c1.7,1.7,3.9,3.1,6.4,4.1
	c2.4,1.1,5.1,1.5,7.9,1.5c2.9,0,5.6-0.5,8-1.6l0.8-0.4v1.5h11.4v-50.7h-11.4v13.5H363.1z M364.4,259.7v0.1c0,1.5-0.3,2.8-0.7,4.1
	c-0.4,1.3-1.1,2.4-1.9,3.3c-0.8,0.9-1.9,1.7-3.1,2.3c-1.2,0.5-2.5,0.8-4,0.8s-2.7-0.3-3.9-0.8c-1.2-0.5-2.3-1.3-3.1-2.3
	c-0.8-0.9-1.6-2.1-2-3.3c-0.5-1.3-0.7-2.7-0.7-4.1v-0.1c0-1.5,0.3-2.8,0.7-4.1c0.4-1.3,1.1-2.4,1.9-3.3c0.8-0.9,1.9-1.7,3.1-2.3
	c1.2-0.5,2.5-0.8,4-0.8s2.8,0.3,4,0.8c1.2,0.5,2.3,1.3,3.1,2.3c0.8,0.9,1.6,2.1,2,3.5C364.2,256.8,364.4,258.1,364.4,259.7z"/>
<path class="st0" d="M190.2,241.3L190,242l-0.7-0.3c-2.4-1.1-5.1-1.5-8-1.5s-5.6,0.5-8,1.6c-2.4,1.1-4.5,2.4-6.4,4.1
	c-1.7,1.7-3.2,3.9-4.1,6.1c-1.1,2.4-1.6,4.9-1.6,7.6v0.1c0,2.7,0.5,5.2,1.5,7.5c0.9,2.4,2.4,4.4,4.1,6.1c1.7,1.7,3.9,3.1,6.4,4.1
	c2.4,1.1,5.1,1.5,7.9,1.5c2.9,0,5.6-0.5,8-1.6l0.8-0.4v1.5h11.4v-50.7h-11.4v13.5H190.2z M191.5,259.7v0.1c0,1.5-0.3,2.8-0.7,4.1
	c-0.4,1.3-1.1,2.4-1.9,3.3c-0.8,0.9-1.9,1.7-3.1,2.3c-1.2,0.5-2.5,0.8-4,0.8s-2.7-0.3-3.9-0.8c-1.2-0.5-2.3-1.3-3.1-2.3
	c-0.8-0.9-1.6-2.1-2-3.3c-0.5-1.3-0.7-2.7-0.7-4.1v-0.1c0-1.5,0.3-2.8,0.7-4.1c0.4-1.3,1.1-2.4,1.9-3.3c0.8-0.9,1.9-1.7,3.1-2.3
	c1.2-0.5,2.5-0.8,4-0.8s2.8,0.3,4,0.8c1.2,0.5,2.3,1.3,3.1,2.3c0.8,0.9,1.6,2.1,2,3.5C191.2,256.8,191.5,258.1,191.5,259.7z"/>
<path class="st0" d="M390.7,242.1h-11.4v36.6h11.4V242.1z"/>
<path class="st0" d="M385.1,225.8c-3.7,0-6.8,2.7-6.8,6.1c0,3.3,3.1,6.1,6.8,6.1c3.7,0,6.8-2.7,6.8-6.1
	C391.8,228.5,388.9,225.8,385.1,225.8z"/>
<path class="st0" d="M281.8,268.1c-0.8,0-1.3-0.1-2-0.4s-1.2-0.5-1.6-0.9c-0.4-0.4-0.8-0.8-1.1-1.3c-0.1-0.4-0.3-0.9-0.3-1.6v-11
	h11.6v-10.8h-11.6v-7.3h-11.1v7.3h-6.7v10.8h6.8V264c0,2.1,0.4,4.1,1.3,6c0.9,1.9,2,3.5,3.6,4.7c1.5,1.3,3.2,2.4,5.2,3.1
	c1.6,0.5,3.5,0.9,5.5,0.9h0.4h8.7l-1.7-10.5H281.8z"/>
<path class="st0" d="M241.2,248.2l-2.4-0.4c-5.5-0.9-10.3-1.9-10.3-5.3c0-3.1,3.2-5.1,8.3-5.1c4.8,0,9.5,1.3,14,4l4.8-9.1
	c-7.6-4.3-13.2-5.1-19.4-5.1c-11.5,0-19.4,6.3-19.5,15.6c-0.1,8.5,4.7,13.4,15.2,15l2.5,0.4c6.1,0.9,10.3,1.9,10.3,5.3
	c0,3.2-3.2,5.2-8.4,5.2c-5.6,0-10.8-1.7-15.9-5.1l-5.5,9.1c5.2,3.9,13,6.1,21.2,6.1c9.9,0,20.3-4.4,20.3-16.7
	C256.5,254.8,251.3,250.1,241.2,248.2z"/>
<path class="st0" d="M435.5,252c-1.1-2.3-2.5-4.4-4.4-6.1c-1.9-1.7-4.1-3.2-6.7-4.1c-2.5-1.1-5.3-1.5-8.4-1.5
	c-3.1,0-5.9,0.5-8.4,1.6c-2.5,1.1-4.8,2.4-6.7,4.1c-1.9,1.7-3.3,3.9-4.4,6.1c-1.1,2.4-1.6,4.9-1.6,7.6v0.1c0,2.7,0.5,5.1,1.6,7.5
	c1.1,2.4,2.5,4.4,4.4,6.1c1.9,1.7,4.1,3.1,6.7,4.1c2.5,1.1,5.3,1.5,8.3,1.5c2.9,0,5.9-0.5,8.4-1.6c2.5-1.1,4.8-2.4,6.7-4.1
	c1.9-1.7,3.3-3.9,4.4-6.1c1.1-2.4,1.6-4.8,1.6-7.5v-0.1C436.9,256.9,436.4,254.4,435.5,252z M425.7,259.9c0,1.5-0.3,2.8-0.7,4.1
	c-0.4,1.3-1.1,2.4-1.9,3.3c-0.8,0.9-1.9,1.7-3.1,2.3c-1.2,0.5-2.5,0.8-4,0.8s-2.7-0.3-3.9-0.8c-1.2-0.5-2.3-1.3-3.1-2.3
	c-0.8-0.9-1.6-2.1-2-3.3c-0.5-1.3-0.7-2.7-0.7-4.1v-0.1c0-1.5,0.3-2.8,0.7-4.1c0.4-1.3,1.1-2.4,1.9-3.3c0.8-0.9,1.9-1.7,3.1-2.3
	c1.2-0.5,2.5-0.8,4-0.8s2.8,0.3,4,0.8c1.2,0.5,2.3,1.3,3.1,2.3c0.8,0.9,1.6,2.1,2,3.5c0.5,1.3,0.8,2.7,0.8,4.3v-0.1H425.7z"/>
<path class="st0" d="M135.7,245.8c-1.9-1.7-4.1-3.2-6.7-4.1c-2.5-1.1-5.3-1.5-8.4-1.5c-3.1,0-5.9,0.5-8.4,1.6
	c-2.5,1.1-4.8,2.4-6.7,4.1c-1.9,1.7-3.3,3.9-4.4,6.1c-1.1,2.4-1.6,4.9-1.6,7.6v0.1c0,2.7,0.5,5.1,1.6,7.5c1.1,2.4,2.5,4.4,4.4,6.1
	c1.9,1.7,4.1,3.1,6.7,4.1c2.5,1.1,5.3,1.5,8.3,1.5c2.9,0,5.9-0.5,8.4-1.6c2.5-1.1,4.8-2.4,6.7-4.1c1.9-1.7,3.3-3.9,4.4-6.1
	c1.1-2.4,1.6-4.8,1.6-7.5v-0.1c0-2.7-0.5-5.2-1.6-7.5C139,249.7,137.5,247.6,135.7,245.8z M130.3,259.9c0,1.5-0.3,2.8-0.7,4.1
	c-0.4,1.3-1.1,2.4-1.9,3.3c-0.8,0.9-1.9,1.7-3.1,2.3c-1.2,0.5-2.5,0.8-4,0.8c-1.5,0-2.7-0.3-3.9-0.8c-1.2-0.5-2.3-1.3-3.1-2.3
	c-0.8-0.9-1.6-2.1-2-3.3c-0.5-1.3-0.7-2.7-0.7-4.1v-0.1c0-1.5,0.3-2.8,0.7-4.1c0.4-1.3,1.1-2.4,1.9-3.3c0.8-0.9,1.9-1.7,3.1-2.3
	c1.2-0.5,2.5-0.8,4-0.8c1.5,0,2.8,0.3,4,0.8c1.2,0.5,2.3,1.3,3.1,2.3c0.8,0.9,1.6,2.1,2,3.5c0.5,1.3,0.8,2.7,0.8,4.3v-0.1H130.3z"/>
<path class="st1" d="M263.2,0H174c-2.9,0-5.5,1.5-6.9,4l-44.6,77.2c-1.5,2.5-1.5,5.6,0,8l44.6,77.2c1.5,2.5,4.1,4,6.9,4h89.2
	c2.9,0,5.5-1.5,6.9-4l44.6-77.2c1.5-2.5,1.5-5.6,0-8L270.1,4C268.7,1.5,266,0,263.2,0z"/>
<linearGradient id="SVGID_1_" gradientUnits="userSpaceOnUse" x1="242.97" y1="219.2378" x2="242.97" y2="138.448" gradientTransform="matrix(1 0 0 -1 0 282)">
	<stop  offset="0" style="stop-color:#FFE100"/>
	<stop  offset="0.1637" style="stop-color:#FFDD02"/>
	<stop  offset="0.3334" style="stop-color:#FFD00A"/>
	<stop  offset="0.5058" style="stop-color:#FFBC16"/>
	<stop  offset="0.6789" style="stop-color:#FF9F27"/>
	<stop  offset="0.8" style="stop-color:#FF8636"/>
	<stop  offset="1" style="stop-color:#FF6E36"/>
</linearGradient>
<path class="st2" d="M252.5,65.3l-47.7,77.6c0.8,0.4,1.7,0.7,2.7,0.7h21.9c0.7,0,1.5-0.1,2-0.4c0.3-0.1,0.5-0.3,0.8-0.4
	c0.3-0.1,0.7-0.4,0.9-0.7c0.4-0.3,0.7-0.7,0.9-1.1l46.2-75.3c0.5-0.9,0.8-2,0.8-2.9h-24C255.2,62.8,253.5,63.7,252.5,65.3z"/>
<linearGradient id="SVGID_2_" gradientUnits="userSpaceOnUse" x1="174.9222" y1="242.1763" x2="200.2882" y2="182.4176" gradientTransform="matrix(1 0 0 -1 0 282)">
	<stop  offset="0" style="stop-color:#FFE100"/>
	<stop  offset="0.2029" style="stop-color:#FFD806"/>
	<stop  offset="0.5337" style="stop-color:#FFC017"/>
	<stop  offset="0.9491" style="stop-color:#FF9832"/>
	<stop  offset="1" style="stop-color:#FF9336"/>
</linearGradient>
<path class="st3" d="M185.5,65.3L205,97.5l13.9-22l-19.2-31.2c-1.1-1.6-2.8-2.5-4.7-2.5h-23.2c-1.9,0-3.6,0.9-4.5,2.4l-10.4,15.8
	c-0.5,0.9-0.9,1.9-0.9,2.9h25.1C182.7,62.8,184.4,63.7,185.5,65.3z"/>
<path class="st4" d="M280.2,59.8l-10.4-15.8c-1.1-1.5-2.7-2.4-4.5-2.4H243c-1.9,0-3.6,0.9-4.7,2.5l-33.5,53.3l-19.5-32.2
	c-0.9-1.6-2.8-2.7-4.7-2.7h-25.1c0,1.1,0.3,2,0.8,2.9l35.3,57.4l10.9,17.8c0.5,0.8,1.2,1.5,2,1.9L252.3,65c0.9-1.6,2.8-2.7,4.7-2.7
	h24C281.1,61.7,280.8,60.6,280.2,59.8z"/>
</svg>
